# xmcd
#
# Track frame offsets: 
#        150
#        16609
#        29046
#        44009
#        62550
#        74271
#        90363
#        106830
#        123843
#        143940
#        161495
#
# Disc length: 2370 seconds
#
# Revision: 0
# Processed by: cddbd v1.5.2PL0 Copyright (c) Steve Scherf et al.
# Submitted via: ExactAudioCopyFreeDBPlugin 1.0
#
DISCID=8b09400b
DTITLE=No Good Sister - You Can Love Me
DYEAR=2017
DGENRE=Country
TTITLE0=Just Tonight
TTITLE1=Higher With You
TTITLE2=Reckless
TTITLE3=Wrote You Off
TTITLE4=Broken Hearted
TTITLE5=This Time
TTITLE6=Sorry About The Mess
TTITLE7=Little Bit Crazy
TTITLE8=Fireworks
TTITLE9=Everything Else
TTITLE10=Look Good On Paper
EXTD=
EXTT0=
EXTT1=
EXTT2=
EXTT3=
EXTT4=
EXTT5=
EXTT6=
EXTT7=
EXTT8=
EXTT9=
EXTT10=
PLAYORDER=
